#!OML:ASF E:\Style4\Style4.ASF
:FULLY-SPECIFIED
:DEGREES
1852
root -0.221204 18.0241 -1.59425 2.62019 1.1301 1.21249
lowerback 4.61664 1.61799 0.15853
upperback 0.870314 2.1696 0.372516
thorax -1.70087 1.08245 0.163065
lowerneck -4.16159 -5.23427 -6.02951
upperneck 11.0314 -6.94987 3.62664
head 4.32138 -3.48153 1.72791
rclavicle -2.43511e-015 7.55382e-015
rhumerus -49.8739 26.547 -101.157
rradius 85.0264
rwrist -1.97177
rhand -27.7928 27.8933
rfingers 7.12502
rthumb -1.18583 -2.08315
lclavicle -2.43511e-015 7.55382e-015
lhumerus -53.3938 -33.0656 105.736
lradius 88.7324
lwrist 7.24491
lhand -14.0902 22.5014
lfingers 7.12502
lthumb 12.0421 52.1349
rfemur -9.49307 2.10746 18.0542
rtibia 23.9125
rfoot -15.6835 -17.4067
rtoes -12.5739
lfemur -8.1522 -6.19932 -19.4933
ltibia 21.9542
lfoot -16.3444 10.5427
ltoes -15.8856
1853
root -0.224268 18.0231 -1.59639 2.45617 1.10717 1.21077
lowerback 4.73701 1.64489 0.123548
upperback 0.918657 2.20376 0.368684
thorax -1.71975 1.09959 0.173756
lowerneck -4.23181 -5.25609 -5.95897
upperneck 11.0935 -6.97375 3.54794
head 4.34805 -3.49372 1.68864
rclavicle -1.71452e-014 1.19271e-015
rhumerus -49.7013 26.5383 -101.079
rradius 85.015
rwrist -1.99145
rhand -27.7452 27.8705
rfingers 7.12502
rthumb -1.13979 -2.10615
lclavicle -1.71452e-014 1.19271e-015
lhumerus -53.2938 -33.1711 105.682
lradius 88.8039
lwrist 7.29814
lhand -14.1961 22.4139
lfingers 7.12502
lthumb 11.94 52.0534
rfemur -9.29507 2.12369 18.0842
rtibia 23.8765
rfoot -15.6735 -17.4229
rtoes -12.7385
lfemur -7.9611 -6.12887 -19.4905
ltibia 21.9427
lfoot -16.3323 10.5116
ltoes -15.9797
1854
root -0.222857 18.0229 -1.59466 2.48869 1.06272 1.23881
lowerback 4.62799 1.67916 0.101773
upperback 0.914875 2.24744 0.336335
thorax -1.66239 1.12155 0.153556
lowerneck -4.30394 -5.3014 -5.94125
upperneck 11.1549 -7.03423 3.55077
head 4.38127 -3.52186 1.68033
rclavicle -2.29099e-014 1.19271e-015
rhumerus -49.5309 26.5007 -101.005
rradius 84.9844
rwrist -2.03747
rhand -27.7721 27.871
rfingers 7.12502
rthumb -1.16579 -2.10556
lclavicle -2.29099e-014 1.19271e-015
lhumerus -53.2384 -33.2726 105.629
lradius 88.8769
lwrist 7.27742
lhand -14.2662 22.4828
lfingers 7.12502
lthumb 11.8724 52.1262
rfemur -9.3269 2.15428 18.0351
rtibia 23.858
rfoot -15.6692 -17.3903
rtoes -12.558
lfemur -7.9687 -6.15443 -19.535
ltibia 21.9192
lfoot -16.3428 10.6091
ltoes -16.0948
1855
root -0.223036 18.0228 -1.59515 2.42533 1.03522 1.17664
lowerback 4.65224 1.69327 0.147268
upperback 0.918231 2.26873 0.34924
thorax -1.67131 1.13196 0.139348
lowerneck -4.33188 -5.32664 -5.94242
upperneck 11.1914 -7.06694 3.54512
head 4.39855 -3.53802 1.67559
rclavicle -1.1281e-014 -5.1684e-015
rhumerus -49.3754 26.5164 -100.939
rradius 84.895
rwrist -2.03854
rhand -27.8523 27.9744
rfingers 7.12502
rthumb -1.24322 -2.00172
lclavicle -1.1281e-014 -5.1684e-015
lhumerus -53.1576 -33.278 105.538
lradius 88.9057
lwrist 7.24478
lhand -14.1948 22.4829
lfingers 7.12502
lthumb 11.9413 52.1223
rfemur -9.25094 2.24379 18.1063
rtibia 23.831
rfoot -15.6901 -17.4071
rtoes -12.2356
lfemur -7.88062 -6.13532 -19.4738
ltibia 21.8863
lfoot -16.3408 10.5913
ltoes -16.0298
1856
root -0.223639 18.0235 -1.59611 2.38518 1.03714 1.146
lowerback 4.66044 1.70484 0.170265
upperback 0.910321 2.28549 0.356816
thorax -1.68346 1.1402 0.132821
lowerneck -4.27928 -5.32863 -5.98022
upperneck 11.1666 -7.07147 3.5686
head 4.38461 -3.54116 1.69022
rclavicle -2.51463e-014 7.95139e-015
rhumerus -49.2907 26.5045 -100.85
rradius 84.8489
rwrist -2.04139
rhand -27.8866 28.0503
rfingers 7.12502
rthumb -1.27641 -1.92559
lclavicle -2.51463e-014 7.95139e-015
lhumerus -53.0555 -33.3049 105.477
lradius 88.9013
lwrist 7.31425
lhand -14.1407 22.6789
lfingers 7.12502
lthumb 11.9935 52.3153
rfemur -9.227 2.24977 18.1398
rtibia 23.8436
rfoot -15.7594 -17.3972
rtoes -12.0035
lfemur -7.80754 -6.13527 -19.4419
ltibia 21.8262
lfoot -16.3275 10.5703
ltoes -15.9961
1857
root -0.223377 18.0236 -1.59647 2.36029 1.0515 1.17492
lowerback 4.65628 1.71504 0.163092
upperback 0.898801 2.298 0.31608
thorax -1.69159 1.1464 0.0942545
lowerneck -4.23077 -5.33619 -6.01471
upperneck 11.1441 -7.09051 3.65106
head 4.37468 -3.54823 1.72132
rclavicle 3.8266e-014 -8.74653e-015
rhumerus -49.2248 26.4421 -100.821
rradius 84.8313
rwrist -2.04317
rhand -27.948 28.1086
rfingers 7.12502
rthumb -1.33571 -1.867
lclavicle 3.8266e-014 -8.74653e-015
lhumerus -52.98 -33.3782 105.396
lradius 88.9275
lwrist 7.42199
lhand -14.1682 22.7695
lfingers 7.12502
lthumb 11.9669 52.4075
rfemur -9.22382 2.17985 18.1082
rtibia 23.8864
rfoot -15.7429 -17.3992
rtoes -12.2112
lfemur -7.7463 -6.13395 -19.4771
ltibia 21.7624
lfoot -16.3118 10.607
ltoes -16.2674
1858
root -0.223748 18.024 -1.59549 2.32378 1.07637 1.29568
lowerback 4.64326 1.72234 0.0339026
upperback 0.905159 2.30049 0.269773
thorax -1.68097 1.14823 0.119421
lowerneck -4.18269 -5.35529 -6.00671
upperneck 11.0797 -7.11983 3.6663
head 4.34865 -3.56205 1.725
rclavicle 4.07509e-015 5.96354e-015
rhumerus -49.1516 26.3894 -100.788
rradius 84.8222
rwrist -2.00414
rhand -27.913 28.0437
rfingers 7.12502
rthumb -1.30186 -1.93204
lclavicle 4.07509e-015 5.96354e-015
lhumerus -52.8879 -33.4075 105.337
lradius 88.923
lwrist 7.42607
lhand -14.2577 22.7359
lfingers 7.12502
lthumb 11.8806 52.3788
rfemur -9.1569 2.09573 17.9787
rtibia 23.9276
rfoot -15.7746 -17.2844
rtoes -11.8897
lfemur -7.67562 -6.12878 -19.6099
ltibia 21.7235
lfoot -16.337 10.5946
ltoes -16.2492
1859
root -0.223783 18.0245 -1.59652 2.28552 1.10999 1.26137
lowerback 4.64169 1.71473 0.0508984
upperback 0.92305 2.29137 0.282436
thorax -1.66155 1.14364 0.123857
lowerneck -4.23191 -5.35769 -5.98874
upperneck 11.0721 -7.12033 3.65464
head 4.35352 -3.56158 1.71725
rclavicle 1.30204e-014 -7.15625e-015
rhumerus -49.0651 26.4003 -100.719
rradius 84.826
rwrist -2.00931
rhand -27.9104 28.0763
rfingers 7.12502
rthumb -1.29933 -1.89952
lclavicle 1.30204e-014 -7.15625e-015
lhumerus -52.77 -33.443 105.299
lradius 88.8913
lwrist 7.5664
lhand -14.4181 22.6166
lfingers 7.12502
lthumb 11.726 52.2684
rfemur -9.04743 1.9759 18.0276
rtibia 23.937
rfoot -15.8592 -17.0621
rtoes -11.1052
lfemur -7.63004 -6.12951 -19.5675
ltibia 21.7189
lfoot -16.3691 10.5464
ltoes -16.0835
1860
root -0.225894 18.024 -1.59956 2.25626 1.12813 1.1077
lowerback 4.63634 1.70887 0.174185
upperback 0.944214 2.29032 0.329897
thorax -1.63395 1.14265 0.104243
lowerneck -4.3198 -5.34962 -5.96676
upperneck 11.1003 -7.10235 3.61339
head 4.37368 -3.55297 1.69948
rclavicle -4.22417e-015 7.95139e-016
rhumerus -48.9365 26.4272 -100.612
rradius 84.8117
rwrist -2.02189
rhand -27.8919 27.9738
rfingers 7.12502
rthumb -1.28151 -2.00213
lclavicle -4.22417e-015 7.95139e-016
lhumerus -52.6485 -33.472 105.258
lradius 88.8821
lwrist 7.65566
lhand -14.5443 22.7012
lfingers 7.12502
lthumb 11.6042 52.3599
rfemur -9.02383 2.00837 18.2187
rtibia 23.9365
rfoot -15.841 -17.1008
rtoes -11.2316
lfemur -7.61312 -6.13162 -19.3852
ltibia 21.7057
lfoot -16.3754 10.5278
ltoes -16.1952
1861
root -0.227398 18.0211 -1.60111 2.21725 1.1256 1.07603
lowerback 4.60599 1.71507 0.178677
upperback 0.967115 2.29881 0.342237
thorax -1.59384 1.14697 0.115334
lowerneck -4.35547 -5.34385 -5.98041
upperneck 11.1339 -7.0907 3.60026
head 4.3894 -3.54809 1.69696
rclavicle 2.90723e-014 -1.59028e-014
rhumerus -48.8542 26.4441 -100.533
rradius 84.7855
rwrist -2.02118
rhand -27.9226 27.9959
rfingers 7.12502
rthumb -1.31116 -1.9798
lclavicle 2.90723e-014 -1.59028e-014
lhumerus -52.6099 -33.4761 105.224
lradius 88.9217
lwrist 7.65765
lhand -14.6437 22.8781
lfingers 7.12502
lthumb 11.5084 52.5422
rfemur -9.05001 2.08187 18.2533
rtibia 23.9264
rfoot -15.7494 -17.3032
rtoes -12.3367
lfemur -7.55493 -6.09525 -19.3454
ltibia 21.6559
lfoot -16.357 10.46
ltoes -16.1166
1862
root -0.227169 18.0194 -1.59714 2.20434 1.09403 1.22185
lowerback 4.501 1.73194 0.0139191
upperback 0.982348 2.31247 0.301104
thorax -1.52439 1.15452 0.168277
lowerneck -4.30257 -5.33428 -5.9572
upperneck 11.1225 -7.07889 3.56973
head 4.37458 -3.54353 1.68631
rclavicle -9.69075e-015 1.07344e-014
rhumerus -48.8153 26.4417 -100.486
rradius 84.7645
rwrist -2.02127
rhand -27.9451 27.9899
rfingers 7.12502
rthumb -1.33287 -1.9857
lclavicle -9.69075e-015 1.07344e-014
lhumerus -52.6102 -33.4469 105.185
lradius 89.0199
lwrist 7.69601
lhand -14.7073 22.9982
lfingers 7.12502
lthumb 11.447 52.6657
rfemur -9.04204 2.01685 18.0751
rtibia 23.9076
rfoot -15.674 -17.32
rtoes -12.8475
lfemur -7.45467 -6.05258 -19.5169
ltibia 21.5671
lfoot -16.3624 10.4507
ltoes -16.0966
1863
root -0.224875 18.0194 -1.58871 2.13572 1.08961 1.4549
lowerback 4.40539 1.73823 -0.216588
upperback 1.03234 2.30911 0.236988
thorax -1.42612 1.15362 0.235821
lowerneck -4.23901 -5.33798 -6.00253
upperneck 11.045 -7.08652 3.61147
head 4.34378 -3.54763 1.70842
rclavicle -5.06901e-015 -3.97569e-016
rhumerus -48.7983 26.4292 -100.428
rradius 84.754
rwrist -2.02047
rhand -27.9624 28.0002
rfingers 7.12502
rthumb -1.34964 -1.97528
lclavicle -5.06901e-015 -3.97569e-016
lhumerus -52.5858 -33.3662 105.126
lradius 89.0985
lwrist 7.6561
lhand -14.5403 23.0334
lfingers 7.12502
lthumb 11.6081 52.6919
rfemur -8.92711 1.85681 17.7855
rtibia 23.9168
rfoot -15.7397 -17.1614
rtoes -12.7802
lfemur -7.24644 -6.06725 -19.8104
ltibia 21.437
lfoot -16.3434 10.4896
ltoes -16.2715
1864
root -0.223383 18.0191 -1.58451 2.0815 1.13879 1.5752
lowerback 4.39102 1.72521 -0.336693
upperback 1.04153 2.28577 0.198847
thorax -1.41165 1.1423 0.265851
lowerneck -4.17907 -5.35341 -6.04366
upperneck 10.9837 -7.10957 3.64426
head 4.31886 -3.55959 1.72592
rclavicle -5.31749e-015 4.37326e-015
rhumerus -48.7653 26.4314 -100.378
rradius 84.6925
rwrist -2.04324
rhand -27.8538 28.0302
rfingers 7.12502
rthumb -1.24472 -1.94589
lclavicle -5.31749e-015 4.37326e-015
lhumerus -52.604 -33.3196 105.116
lradius 89.1164
lwrist 7.61311
lhand -14.5355 23.088
lfingers 7.12502
lthumb 11.6127 52.7462
rfemur -8.86386 1.78247 17.6336
rtibia 23.9749
rfoot -15.8742 -17.1017
rtoes -12.4823
lfemur -7.09168 -6.14108 -19.9608
ltibia 21.2985
lfoot -16.3112 10.5086
ltoes -16.0475
